# xmcd CD database file
#
# Track frame offsets:
#	150
#	20400
#	39526
#	64367
#	86963
#	113350
#	126431
#	148793
#	175078
#	192618
#
# Disc length: 2802 seconds
#
# Revision: 0
# Processed by: cddbd v1.5.1PL2 Copyright (c) Steve Scherf et al.
# Submitted via: CDex 1.51
#
DISCID=920af00a
DTITLE=Norah Jones - The Music of Norah Jones on Saxaphone
DYEAR=2005
DGENRE=Jazz
TTITLE0=Sunrise
TTITLE1=What am i to you
TTITLE2=Carnival Town
TTITLE3=Toes
TTITLE4=The Prettiest Thing
TTITLE5=Don't miss you at all
TTITLE6=Come away with me
TTITLE7=Nightingale
TTITLE8=The long day is over
TTITLE9=Come away with me (redux)
EXTD=YEAR: 2005
EXTT0=
EXTT1=
EXTT2=
EXTT3=
EXTT4=
EXTT5=
EXTT6=
EXTT7=
EXTT8=
EXTT9=
PLAYORDER=
